<?xml version="1.0" encoding="UTF-8"?>
<svg id="Capa_1" data-name="Capa 1" xmlns="http://www.w3.org/2000/svg" version="1.1" viewBox="0 0 40 40">
  <defs>
    <style>
      .cls-1 {
        fill: #3d3935;
        stroke-width: 0px;
      }
    </style>
  </defs>
  <path class="cls-1" d="M26.6,25l.5-.6c1.7-2.3,2.6-5.1,2.6-7.9s-1.4-6.9-3.9-9.5c-2.5-2.5-5.9-3.9-9.5-3.9s-6.9,1.4-9.5,3.9c-2.5,2.5-3.9,5.9-3.9,9.5s1.4,6.9,3.9,9.5c2.5,2.5,5.9,3.9,9.5,3.9s5.6-.9,7.9-2.6l.6-.5,9.2,9.3c.5.5,1.3.5,1.8,0s.5-1.3,0-1.8l-9.2-9.3h0ZM16.2,27.2c-6,0-10.8-4.9-10.8-10.8s4.8-10.8,10.8-10.8,10.8,4.8,10.8,10.8-4.9,10.8-10.8,10.8Z"/>
</svg>