<?xml version="1.0" encoding="UTF-8"?>
<svg id="Capa_1" data-name="Capa 1" xmlns="http://www.w3.org/2000/svg" version="1.1" viewBox="0 0 30.1 33">
  <defs>
    <style>
      .cls-1 {
        fill: #3d3935;
        stroke-width: 0px;
      }
    </style>
  </defs>
  <path class="cls-1" d="M3.7,31h22.8c.8,0,1.5-.7,1.5-1.5,0-5.6-4.5-10.2-10.2-10.2h-5.4c-5.6,0-9.4,4.6-10.2,10.2-.2,1.4.7,1.5,1.5,1.5h0ZM4.5,28.5c.3-1.9,1.3-3.6,2.7-4.9s3.3-2,5.3-2h5.4c2,0,3.8.7,5.2,2,1.5,1.3,2.4,3,2.6,4.9v.3H4.5v-.3h0Z"/>
  <path class="cls-1" d="M15.1,2.8c-3.9,0-7.2,3.2-7.2,7.2s3.2,7.2,7.2,7.2,7.2-3.2,7.2-7.2-3.2-7.2-7.2-7.2ZM15.1,15c-2.7,0-5-2.2-5-5s2.2-5,5-5,5,2.2,5,5-2.2,5-5,5Z"/>
</svg>