<?xml version="1.0" encoding="UTF-8"?>
<svg id="Capa_1" data-name="Capa 1" xmlns="http://www.w3.org/2000/svg" version="1.1" viewBox="0 0 40 40">
  <defs>
    <style>
      .cls-1 {
        fill: #3d3935;
        stroke: #3d3935;
        stroke-miterlimit: 10;
        stroke-width: .5px;
      }
    </style>
  </defs>
  <path class="cls-1" d="M13.3,10.2c-1.7,0-3.1,1.4-3.1,3.1s1.2,2.9,2.8,3.1h.1c.4.9.9,1.6,1.5,2.2,1.4,1.4,3.3,2.2,5.3,2.2,2.9,0,5.6-1.7,6.8-4.4h0c0,0,.1,0,.1,0,0,0,0,0,.1,0,0,0,0,0,.1,0,1.5-.3,2.6-1.6,2.6-3.1s-1.4-3.1-3.1-3.1-3.1,1.4-3.1,3.1.5,2,1.4,2.6h.1c0,0,0,.2,0,.2-1,1.8-2.9,2.9-5,2.9s-3-.6-4.1-1.7c-.4-.4-.7-.8-.9-1.2h0c0-.1.1-.2.1-.2.9-.6,1.4-1.6,1.4-2.6,0-1.7-1.4-3.1-3.1-3.1h0ZM26.7,12c.7,0,1.3.6,1.3,1.3s-.5,1.2-1.1,1.3c0,0-.1,0-.2,0s-.1,0-.2,0c-.6-.1-1.1-.7-1.1-1.3s.6-1.3,1.3-1.3ZM13.6,14.6c0,0-.1,0-.2,0-.7,0-1.3-.6-1.3-1.3s.6-1.3,1.3-1.3,1.3.6,1.3,1.3-.5,1.2-1.1,1.3Z"/>
  <path class="cls-1" d="M34,5.1H6c-.5,0-.9.4-.9.9v20.4c0,4.6,3.8,8.4,8.4,8.4h12.9c4.6,0,8.4-3.8,8.4-8.4V6c0-.5-.4-.9-.9-.9h0ZM33.1,26.4c0,3.6-3,6.6-6.6,6.6h-12.9c-3.7,0-6.6-3-6.6-6.6V6.9h26.1v19.5h0Z"/>
</svg>