<?xml version="1.0" encoding="UTF-8"?>
<svg id="Capa_1" data-name="Capa 1" xmlns="http://www.w3.org/2000/svg" version="1.1" viewBox="0 0 40 40">
  <defs>
    <style>
      .cls-1 {
        fill: #3d3935;
        stroke-width: 0px;
      }
    </style>
  </defs>
  <path class="cls-1" d="M37.3,15.3v-.2c0-4.7-3.3-8.7-7.9-9.6-2.6-.5-5.3,0-7.4,1.6-.3.2-.5.4-.8.6-.3.3-.6.6-.9.9l-.3.3-.3-.3c-.5-.6-1-1.1-1.7-1.5-1.6-1.2-3.6-1.8-5.6-1.8s-1.2,0-1.8.2c-4.6.9-7.9,4.9-7.9,9.6v.2c0,2.8,1.2,5.5,3.2,7.3l12.1,11.2.2.2c.5.5,1.1.7,1.8.7s1.3-.3,1.8-.7l.2-.2,12-11.2c2-1.9,3.2-4.6,3.2-7.3h0ZM32.3,20.7l-12.3,11.4-12.3-11.4c-1.5-1.4-2.4-3.4-2.4-5.4v-.2c0-3.4,2.4-6.4,5.8-7,2.4-.5,5,.4,6.6,2.2h0l1.2,1.4h.1c.2.3.5.4.8.4s.7-.1.9-.4,0,0,0,0h0l1.2-1.4c1.7-1.9,4.2-2.7,6.6-2.2,3.4.6,5.8,3.6,5.8,7v.2c0,2-.9,4-2.4,5.4h.4Z"/>
</svg>