<?xml version="1.0" encoding="UTF-8"?>
<svg id="Capa_1" data-name="Capa 1" xmlns="http://www.w3.org/2000/svg" version="1.1" viewBox="0 0 90 90">
  <defs>
    <style>
      .cls-1 {
        fill: #3d3935;
        stroke-width: 0px;
      }
    </style>
  </defs>
  <path class="cls-1" d="M74,76.8c7.9,0,14.4-5.2,14.4-11.5V4.4c0-.9-.4-1.7-1.1-2.3h0c-.7-.5-1.6-.7-2.5-.5L26.8,19.1c-1.2.4-2,1.5-2,2.7v45.5l-3.8-1.2c-1.6-.5-3.2-.7-4.9-.7-7.9,0-14.4,5.2-14.4,11.5s6.5,11.5,14.4,11.5,14.4-5.2,14.4-11.5v-40l52.4-15.7v34.4l-3.8-1.2c-1.6-.5-3.2-.7-4.9-.7-7.9,0-14.4,5.2-14.4,11.5s6.5,11.5,14.4,11.5h0Z"/>
</svg>